<svg width="29" height="40" viewBox="0 0 29 40" fill="none" xmlns="http://www.w3.org/2000/svg">
<path d="M1.4398 7.04C0.596471 6.19667 0.174805 5.225 0.174805 4.125C0.174805 3.025 0.596471 2.07167 1.4398 1.265C2.3198 0.421666 3.3648 0 4.5748 0C5.7848 0 6.81147 0.421666 7.65481 1.265C8.53481 2.07167 8.9748 3.025 8.9748 4.125C8.9748 5.225 8.53481 6.19667 7.65481 7.04C6.81147 7.84666 5.7848 8.25 4.5748 8.25C3.3648 8.25 2.3198 7.84666 1.4398 7.04ZM0.724805 39.875V11.825H8.4248V39.875H0.724805Z" fill="#293037"/>
<path d="M14.4748 39.875V1.375H22.1748V33.275H28.4998V39.875H14.4748Z" fill="#293037"/>
</svg>
