<svg width="24" height="21" viewBox="0 0 24 21" fill="none" xmlns="http://www.w3.org/2000/svg">
<path fill-rule="evenodd" clip-rule="evenodd" d="M0 10.5C0 10.8978 0.158016 11.2792 0.439289 11.5605C0.720562 11.8417 1.10205 11.9997 1.49983 11.9997H18.8769L12.4366 18.4366C12.2972 18.576 12.1865 18.7415 12.1111 18.9237C12.0356 19.1059 11.9968 19.3012 11.9968 19.4984C11.9968 19.6956 12.0356 19.8908 12.1111 20.073C12.1865 20.2552 12.2972 20.4207 12.4366 20.5602C12.5761 20.6996 12.7416 20.8102 12.9238 20.8857C13.106 20.9612 13.3013 21 13.4985 21C13.6957 21 13.891 20.9612 14.0732 20.8857C14.2554 20.8102 14.4209 20.6996 14.5604 20.5602L23.5594 11.5618C23.699 11.4225 23.8099 11.257 23.8855 11.0748C23.9611 10.8926 24 10.6973 24 10.5C24 10.3027 23.9611 10.1074 23.8855 9.9252C23.8099 9.743 23.699 9.5775 23.5594 9.43819L14.5604 0.439816C14.2787 0.158207 13.8968 0 13.4985 0C13.1002 0 12.7182 0.158207 12.4366 0.439816C12.155 0.721425 11.9968 1.10337 11.9968 1.50162C11.9968 1.89988 12.155 2.28182 12.4366 2.56343L18.8769 9.00027H1.49983C1.10205 9.00027 0.720562 9.15828 0.439289 9.43953C0.158016 9.72079 0 10.1022 0 10.5Z" fill="white"/>
</svg>
