<svg width="60" height="60" viewBox="0 0 60 60" fill="none" xmlns="http://www.w3.org/2000/svg">
<circle opacity="0.8" r="30" transform="matrix(-1 0 0 1 30 30)" fill="white"/>
<path fill-rule="evenodd" clip-rule="evenodd" d="M21 30C21 30.3031 21.1185 30.5937 21.3295 30.808C21.5404 31.0223 21.8265 31.1427 22.1249 31.1427H35.1577L30.3275 36.0469C30.2229 36.1531 30.1399 36.2793 30.0833 36.4181C30.0267 36.5569 29.9976 36.7057 29.9976 36.8559C29.9976 37.0062 30.0267 37.1549 30.0833 37.2937C30.1399 37.4325 30.2229 37.5587 30.3275 37.6649C30.432 37.7711 30.5562 37.8554 30.6929 37.9129C30.8295 37.9704 30.976 38 31.1239 38C31.2718 38 31.4182 37.9704 31.5549 37.9129C31.6915 37.8554 31.8157 37.7711 31.9203 37.6649L38.6695 30.809C38.7743 30.7029 38.8574 30.5768 38.9141 30.4379C38.9708 30.2991 39 30.1503 39 30C39 29.8497 38.9708 29.7009 38.9141 29.5621C38.8574 29.4232 38.7743 29.2971 38.6695 29.191L31.9203 22.3351C31.7091 22.1205 31.4226 22 31.1239 22C30.8252 22 30.5387 22.1205 30.3275 22.3351C30.1162 22.5497 29.9976 22.8407 29.9976 23.1441C29.9976 23.4475 30.1162 23.7385 30.3275 23.9531L35.1577 28.8573H22.1249C21.8265 28.8573 21.5404 28.9777 21.3295 29.192C21.1185 29.4063 21 29.697 21 30Z" fill="#293037"/>
</svg>
