<svg width="24" height="21" viewBox="0 0 24 21" fill="none" xmlns="http://www.w3.org/2000/svg">
<path fill-rule="evenodd" clip-rule="evenodd" d="M24 10.5C24 10.8978 23.842 11.2792 23.5607 11.5605C23.2794 11.8417 22.8979 11.9997 22.5002 11.9997H5.12311L11.5634 18.4366C11.7028 18.576 11.8135 18.7415 11.8889 18.9237C11.9644 19.1059 12.0032 19.3012 12.0032 19.4984C12.0032 19.6956 11.9644 19.8908 11.8889 20.073C11.8135 20.2552 11.7028 20.4207 11.5634 20.5602C11.4239 20.6996 11.2584 20.8102 11.0762 20.8857C10.894 20.9612 10.6987 21 10.5015 21C10.3043 21 10.109 20.9612 9.92682 20.8857C9.74462 20.8102 9.57907 20.6996 9.43963 20.5602L0.440632 11.5618C0.300958 11.4225 0.190142 11.257 0.114531 11.0748C0.0389202 10.8926 0 10.6973 0 10.5C0 10.3027 0.0389202 10.1074 0.114531 9.9252C0.190142 9.743 0.300958 9.5775 0.440632 9.43819L9.43963 0.439816C9.72126 0.158207 10.1032 0 10.5015 0C10.8998 0 11.2818 0.158207 11.5634 0.439816C11.845 0.721425 12.0032 1.10337 12.0032 1.50162C12.0032 1.89988 11.845 2.28182 11.5634 2.56343L5.12311 9.00027H22.5002C22.8979 9.00027 23.2794 9.15828 23.5607 9.43953C23.842 9.72079 24 10.1022 24 10.5Z" fill="white"/>
</svg>
